<?xml version="1.0" standalone="no"?>
<!DOCTYPE svg PUBLIC "-//W3C//DTD SVG 20010904//EN"
 "http://www.w3.org/TR/2001/REC-SVG-20010904/DTD/svg10.dtd">
<svg version="1.0" xmlns="http://www.w3.org/2000/svg"
 width="500.000000pt" height="500.000000pt" viewBox="0 0 500.000000 500.000000"
 preserveAspectRatio="xMidYMid meet">
<metadata>
Created by potrace 1.14, written by Peter Selinger 2001-2017
</metadata>
<g transform="translate(0.000000,500.000000) scale(0.100000,-0.100000)"
fill="#000000" stroke="none">
<path d="M2411 3580 c-35 -60 -61 -115 -58 -122 2 -7 30 -56 60 -108 l56 -95
-126 -5 -126 -5 -254 -440 c-140 -242 -261 -452 -269 -467 l-15 -28 390 0 390
0 54 93 c30 50 65 110 77 132 l23 41 -64 112 c-35 61 -66 112 -69 112 -4 0
-39 -58 -80 -130 l-74 -130 -123 0 -123 0 27 48 c16 27 105 182 198 345 94
163 172 297 175 297 3 -1 124 -207 269 -460 l264 -460 128 0 c71 0 129 4 129
8 0 5 -165 294 -366 643 -201 349 -378 655 -393 681 -14 26 -29 48 -32 48 -3
0 -34 -49 -68 -110z"/>
<path d="M920 2199 c0 -6 -22 -74 -50 -151 -27 -77 -50 -144 -50 -149 0 -5 15
-9 34 -9 29 0 36 5 45 30 10 31 12 32 61 32 49 0 51 -1 61 -32 10 -26 16 -30
50 -30 l38 0 -40 113 c-23 61 -48 133 -57 160 -15 45 -17 47 -54 47 -21 0 -38
-5 -38 -11z"/>
<path d="M1260 2050 l0 -160 35 0 35 0 0 60 c0 52 3 60 18 60 13 0 26 -18 45
-60 25 -59 26 -60 64 -60 l39 0 -32 67 -32 68 24 28 c34 41 32 90 -5 128 -28
27 -34 29 -110 29 l-81 0 0 -160z"/>
<path d="M1670 2050 l0 -160 35 0 35 0 0 92 0 92 36 -57 c20 -32 37 -57 39
-55 2 2 19 32 39 68 l36 65 0 -102 0 -103 35 0 35 0 0 160 0 160 -38 0 c-35 0
-39 -3 -70 -60 -19 -33 -37 -60 -42 -60 -5 0 -23 27 -42 60 -30 54 -36 60 -65
60 l-33 0 0 -160z"/>
<path d="M2171 2064 c-29 -80 -55 -152 -58 -160 -4 -10 4 -14 31 -14 32 0 38
4 47 30 11 30 17 33 74 32 43 0 42 1 54 -32 8 -26 15 -30 45 -30 20 0 36 3 36
8 0 4 -25 74 -55 156 -30 82 -55 151 -55 153 0 2 -15 3 -34 3 l-33 0 -52 -146z"/>
<path d="M2622 2193 c-96 -47 -117 -190 -38 -269 56 -56 154 -58 208 -4 25 26
28 35 28 94 l0 66 -65 0 -65 0 0 -30 c0 -27 3 -30 30 -30 26 0 30 -3 30 -29 0
-31 -14 -41 -61 -41 -87 0 -110 143 -30 185 38 19 68 19 105 0 37 -20 36 -20
36 20 0 24 -6 37 -19 45 -30 15 -122 12 -159 -7z"/>
<path d="M3000 2050 l0 -160 35 0 35 0 0 60 c0 52 3 60 18 60 13 0 26 -18 45
-60 25 -59 26 -60 64 -60 l39 0 -32 67 -32 68 24 28 c34 41 32 90 -5 128 -28
27 -34 29 -110 29 l-81 0 0 -160z"/>
<path d="M3470 2199 c0 -6 -22 -74 -50 -151 -27 -77 -50 -144 -50 -149 0 -5
15 -9 33 -9 28 0 36 5 48 32 13 30 18 33 59 32 41 0 46 -3 59 -32 13 -28 19
-32 53 -32 l37 0 -40 113 c-23 61 -48 133 -57 160 -15 45 -17 47 -54 47 -21 0
-38 -5 -38 -11z"/>
<path d="M3810 2050 l0 -160 35 0 35 0 0 98 0 97 37 -62 c21 -35 41 -59 45
-55 4 4 21 32 37 62 l31 55 0 -97 0 -98 35 0 35 0 0 160 0 160 -35 0 c-32 0
-37 -5 -71 -66 -41 -73 -35 -74 -88 19 -25 41 -32 47 -62 47 l-34 0 0 -160z"/>
</g>
</svg>
